<?xml version="1.0" encoding="UTF-8"?>
<svg width="32" height="32" viewBox="0 0 32 32" fill="none" xmlns="http://www.w3.org/2000/svg">
    <rect width="32" height="32" rx="8" fill="#FF0000"/>
    <path d="M22 10L22 20.5C22 22.433 20.433 24 18.5 24C16.567 24 15 22.433 15 20.5C15 18.567 16.567 17 18.5 17C19.2797 17 20.0037 17.2321 20.6 17.6351L20.6 12.4L13 14V22.5C13 24.433 11.433 26 9.5 26C7.567 26 6 24.433 6 22.5C6 20.567 7.567 19 9.5 19C10.2797 19 11.0037 19.2321 11.6 19.6351L11.6 11.5C11.6 10.6203 12.1975 9.84896 13.0398 9.62279L20.6398 7.62279C21.4493 7.40419 22.2687 7.69738 22.7411 8.35624C22.9105 8.60044 23 8.88295 23 9.17233L23 10L22 10Z" fill="white"/>
</svg> 